# xmcd
#
# Track frame offsets: 
#        150
#        31361
#        59361
#        75936
#        88923
#        105704
#        124693
#        140925
#        164799
#        224315
#        252339
#
# Disc length: 3882 seconds
#
# Revision: 0
# Processed by: cddbd v1.5.2PL0 Copyright (c) Steve Scherf et al.
# Submitted via: ExactAudioCopyFreeDBPlugin 1.0
#
DISCID=a00f280b
DTITLE=Les Metamorphoses - Lignes Paralleles - Haydn, Lipatti, Mozart
DYEAR=2018
DGENRE=Classical
TTITLE0=Symphony No.49 in F minor 'La Passione' - I. Adagio
TTITLE1=Symphony No.49 in F minor 'La Passione' - II. Allegro di molto
TTITLE2=Symphony No.49 in F minor 'La Passione' - III. Menuet
TTITLE3=Symphony No.49 in F minor 'La Passione' - IV. Finale - Presto
TTITLE4=Concertino in the classical style op.3 - I. Allegro maestoso
TTITLE5=Concertino in the classical style op.3 - II. Adagio molto
TTITLE6=Concertino in the classical style op.3 - III. Allegretto
TTITLE7=Concertino in the classical style op.3 - IV. Allegro molto
TTITLE8=Piano Concerto in B-flat major No.27 KV 595 - I. Allegro
TTITLE9=Piano Concerto in B-flat major No.27 KV 595 - II. Larghetto
TTITLE10=Piano Concerto in B-flat major No.27 KV 595 - III. Rondo - Al
TTITLE10=legro
EXTD=
EXTT0=
EXTT1=
EXTT2=
EXTT3=
EXTT4=
EXTT5=
EXTT6=
EXTT7=
EXTT8=
EXTT9=
EXTT10=
PLAYORDER=
